<svg xmlns="http://www.w3.org/2000/svg" viewBox="0 0 22.41 22.41"><defs><style>.cls-1{fill:#88867b;}</style></defs><title>instagram SVG</title><g id="Capa_2" data-name="Capa 2"><g id="_1" data-name="1"><path class="cls-1" d="M17.1,4.13a1.32,1.32,0,1,0,1.32,1.32A1.32,1.32,0,0,0,17.1,4.13ZM11.24,5.82a5.53,5.53,0,1,0,5.53,5.53A5.54,5.54,0,0,0,11.24,5.82Zm0,9.08a3.55,3.55,0,1,1,3.55-3.55A3.55,3.55,0,0,1,11.24,14.9ZM22.41,6.75A6.75,6.75,0,0,0,15.66,0H6.75A6.75,6.75,0,0,0,0,6.75v8.91a6.75,6.75,0,0,0,6.75,6.75h8.91a6.75,6.75,0,0,0,6.75-6.75ZM20.3,15.66a4.64,4.64,0,0,1-4.64,4.64H6.75a4.64,4.64,0,0,1-4.64-4.64V6.75A4.64,4.64,0,0,1,6.75,2.11h8.91A4.64,4.64,0,0,1,20.3,6.75Z"/></g></g></svg>