<svg xmlns="http://www.w3.org/2000/svg" viewBox="0 0 9.89 21.3"><defs><style>.cls-1{fill:#88867b;fill-rule:evenodd;}</style></defs><title>facebook SVG</title><g id="Capa_2" data-name="Capa 2"><g id="_1" data-name="1"><path class="cls-1" d="M2.18,10.73V21a.27.27,0,0,0,.27.27H6.27A.27.27,0,0,0,6.54,21V10.57H9.31a.27.27,0,0,0,.27-.25l.27-3.15a.27.27,0,0,0-.27-.29h-3V4.64a1,1,0,0,1,.95-.95H9.63a.27.27,0,0,0,.27-.27V.27A.27.27,0,0,0,9.63,0H6A3.84,3.84,0,0,0,2.18,3.84v3H.27A.27.27,0,0,0,0,7.14V10.3a.27.27,0,0,0,.27.27H2.18Z"/></g></g></svg>