<svg xmlns="http://www.w3.org/2000/svg" viewBox="0 0 50 50"><defs><style>.cls-1{fill:#d3d1bf;}</style></defs><title>icono lupa SVG_1</title><g id="Capa_2" data-name="Capa 2"><g id="_1" data-name="1"><circle class="cls-1" cx="25" cy="25" r="25"/><path d="M11.81,24A12.52,12.52,0,0,0,31.53,34.22l5.94,5.94a2.79,2.79,0,0,0,4-4l-6.14-6.14A12.53,12.53,0,1,0,11.81,24Zm23.27,0A10.74,10.74,0,1,1,24.34,13.23,10.74,10.74,0,0,1,35.08,24Z"/><path d="M15.39,24a9,9,0,1,0,9-9A9,9,0,0,0,15.39,24ZM31.5,24a7.16,7.16,0,1,1-7.16-7.16A7.16,7.16,0,0,1,31.5,24Z"/></g></g></svg>