<svg xmlns="http://www.w3.org/2000/svg" viewBox="0 0 62.27 25.14"><defs><style>.cls-1{fill:#88867b;}.cls-2{opacity:0.4;}</style></defs><title>loguito en contactos SVG</title><g id="Capa_2" data-name="Capa 2"><g id="_1" data-name="1"><path class="cls-1" d="M55.55,5.49A7.12,7.12,0,0,0,50,7.85a5.65,5.65,0,0,0-5.06-2.36A5,5,0,0,0,40.29,8v-2H33.4a8.25,8.25,0,0,1,2,5.5C35,8.76,33.31,5.49,28.63,5.49A6.38,6.38,0,0,0,23.5,7.85V0H16.19V8.72c-1.37-2.18-4.32-3.23-7-3.23C4.4,5.49.55,7.56.55,11.73c0,3.88,2.55,5.06,6.24,5.84C8.68,18,10.23,18,10.23,19c0,.63-.63,1.07-1.74,1.07a2.07,2.07,0,0,1-2.18-1.29L0,20.78c.81,3.32,5,4.36,8.64,4.36,3.35,0,6-.78,7.54-2.36v1.88H23.5V15.24c0-1.48.7-2.59,2.33-2.59s2.36,1.11,2.36,2.59v9.42h12.1V14.57a1.83,1.83,0,1,1,3.66,0V24.66h7.31V14.57a1.85,1.85,0,1,1,3.69,0V24.66h7.31V12.95C62.27,10.21,61.2,5.49,55.55,5.49ZM17.7,18.17c-.29-3.19-3.08-4.39-7.55-5.34-1.51-.3-2.59-.44-2.59-1.33,0-.66.63-1.11,1.66-1.11a1.8,1.8,0,0,1,1.85,1.18l5.11-1.25V14a4.42,4.42,0,0,1,1.54,3.58Q17.73,17.87,17.7,18.17Z"/><g class="cls-2"><path class="cls-1" d="M55.55,5.49A7.12,7.12,0,0,0,50,7.85a5.65,5.65,0,0,0-5.06-2.36A5,5,0,0,0,40.29,8v-2H33.4a8.25,8.25,0,0,1,2,5.5C35,8.76,33.31,5.49,28.63,5.49A6.38,6.38,0,0,0,23.5,7.85V0H16.19V8.72c-1.37-2.18-4.32-3.23-7-3.23C4.4,5.49.55,7.56.55,11.73c0,3.88,2.55,5.06,6.24,5.84C8.68,18,10.23,18,10.23,19c0,.63-.63,1.07-1.74,1.07a2.07,2.07,0,0,1-2.18-1.29L0,20.78c.81,3.32,5,4.36,8.64,4.36,3.35,0,6-.78,7.54-2.36v1.88H23.5V15.24c0-1.48.7-2.59,2.33-2.59s2.36,1.11,2.36,2.59v9.42h12.1V14.57a1.83,1.83,0,1,1,3.66,0V24.66h7.31V14.57a1.85,1.85,0,1,1,3.69,0V24.66h7.31V12.95C62.27,10.21,61.2,5.49,55.55,5.49ZM17.7,18.17c-.29-3.19-3.08-4.39-7.55-5.34-1.51-.3-2.59-.44-2.59-1.33,0-.66.63-1.11,1.66-1.11a1.8,1.8,0,0,1,1.85,1.18l5.11-1.25V14a4.42,4.42,0,0,1,1.54,3.58Q17.73,17.87,17.7,18.17Z"/></g></g></g></svg>